<svg xmlns="http://www.w3.org/2000/svg" width="33.901" height="33.467" viewBox="0 0 33.901 33.467"><defs><style>.a{fill:#fff;}</style></defs><g transform="translate(-808.38 -193.637)"><g transform="translate(814.889 193.637)"><path class="a" d="M445.13,494.328l-.847-.12a1.679,1.679,0,0,1-1.115-.812l-.383-.772c-.187-.383-.5-.383-.686,0l-.379.772a1.69,1.69,0,0,1-1.115.812l-.849.12c-.424.063-.517.357-.213.66l.614.593a1.667,1.667,0,0,1,.427,1.312l-.145.844c-.074.423.177.606.555.405l.762-.4a1.639,1.639,0,0,1,1.376,0l.759.4c.379.2.631.018.556-.405l-.144-.844a1.674,1.674,0,0,1,.427-1.312l.613-.593C445.649,494.685,445.554,494.391,445.13,494.328Z" transform="translate(-418.13 -482.352)"/><path class="a" d="M434.788,498.641A11.578,11.578,0,0,1,424.75,481.26a1.44,1.44,0,0,0-.023-1.45,1.477,1.477,0,0,0-1.274-.724,14.4,14.4,0,0,0-12.267,6.82,21.853,21.853,0,0,1,9.709,16.8,19.121,19.121,0,0,1,9.334,3.692c.17-.087.346-.156.514-.252a14.537,14.537,0,0,0,5.3-5.325,1.452,1.452,0,0,0-1.255-2.176Z" transform="translate(-411.185 -479.086)"/></g><path class="a" d="M14.449,0c7.98,0-2.226,2.965-2.226,10.945S22.428,28.9,14.449,28.9a14.449,14.449,0,0,1,0-28.9Z" transform="translate(808.38 200.311) rotate(-22)"/></g></svg>