<svg xmlns="http://www.w3.org/2000/svg" width="39.344" height="39.341" viewBox="0 0 39.344 39.341"><defs><style>.a{fill:#fff;}</style></defs><path class="a" d="M254.347,498.872h-5.383a12.541,12.541,0,0,0-.776-2.919l4.656-2.686a1.788,1.788,0,1,0-1.788-3.1l-4.66,2.689a12.646,12.646,0,0,0-2.134-2.133l2.69-4.66a1.789,1.789,0,1,0-3.1-1.789l-2.688,4.658a12.472,12.472,0,0,0-2.914-.774v-5.384a1.788,1.788,0,1,0-3.577,0v5.384a12.535,12.535,0,0,0-2.916.775l-2.689-4.659a1.788,1.788,0,0,0-3.1,1.788l2.691,4.662a12.856,12.856,0,0,0-2.132,2.133l-4.663-2.691a1.788,1.788,0,1,0-1.788,3.1l4.66,2.69a12.393,12.393,0,0,0-.774,2.916h-5.389a1.788,1.788,0,0,0,0,3.577h5.39a12.454,12.454,0,0,0,.772,2.913l-4.66,2.69a1.788,1.788,0,0,0,.9,3.337,1.764,1.764,0,0,0,.891-.24l4.664-2.692a12.852,12.852,0,0,0,2.132,2.131l-2.693,4.665a1.788,1.788,0,0,0,3.1,1.789l2.69-4.661a12.5,12.5,0,0,0,2.916.776v5.384a1.788,1.788,0,0,0,3.577,0v-5.384a12.515,12.515,0,0,0,2.914-.775l2.689,4.658a1.788,1.788,0,1,0,3.1-1.788l-2.691-4.662a12.736,12.736,0,0,0,2.131-2.132l4.663,2.691a1.763,1.763,0,0,0,.891.24,1.788,1.788,0,0,0,.9-3.337l-4.659-2.689a12.454,12.454,0,0,0,.776-2.917h5.383a1.788,1.788,0,1,0,0-3.575Z" transform="translate(-216.791 -480.989)"/></svg>