<svg xmlns="http://www.w3.org/2000/svg" width="43.275" height="39.294" viewBox="0 0 43.275 39.294"><defs><style>.a{fill:#fff;}</style></defs><g transform="translate(-616.563 -227.244)"><path class="a" d="M650.277,240.11a8.673,8.673,0,0,0-1.384.108,10.726,10.726,0,0,0,.153-1.762,11.2,11.2,0,0,0-22.395-.477,10.617,10.617,0,0,0-7.4,17.66,3.615,3.615,0,0,1,.648-.067H624.5a3.639,3.639,0,0,1,2.7-6.092h23.072a3.652,3.652,0,0,1,2.013,6.7,3.641,3.641,0,0,1,1.554,2.351,9.556,9.556,0,0,0-3.566-18.423Z" transform="translate(0 0)"/><path class="a" d="M660.27,278.082H637.2a1.218,1.218,0,0,0,0,2.437H660.27a1.218,1.218,0,0,0,0-2.437Z" transform="translate(-9.993 -26.164)"/><path class="a" d="M646.426,291.853a1.218,1.218,0,0,0-1.218-1.219H622.136a1.218,1.218,0,1,0,0,2.437h23.072A1.218,1.218,0,0,0,646.426,291.853Z" transform="translate(-2.241 -32.624)"/><path class="a" d="M681.573,290.634H678.59a1.218,1.218,0,0,0,0,2.437h2.983a1.218,1.218,0,0,0,0-2.437Z" transform="translate(-31.296 -32.624)"/><path class="a" d="M652.739,303.186H629.667a1.218,1.218,0,0,0,0,2.437h23.072a1.218,1.218,0,1,0,0-2.437Z" transform="translate(-6.117 -39.084)"/></g></svg>