<svg xmlns="http://www.w3.org/2000/svg" width="43.231" height="46.771" viewBox="0 0 43.231 46.771"><defs><style>.a{fill:#fff;}</style></defs><g transform="translate(-483.206 -217.328)"><path class="a" d="M516.885,236.448a8.7,8.7,0,0,0-1.382.108,10.7,10.7,0,0,0,.154-1.76,11.191,11.191,0,0,0-22.373-.476,10.62,10.62,0,0,0,.552,21.227h23.049a9.549,9.549,0,1,0,0-19.1Zm-20.8,17.851a1.873,1.873,0,1,1,1.873-1.873A1.871,1.871,0,0,1,496.082,254.3Zm4.37-6.242a1.872,1.872,0,1,1,1.872-1.872A1.871,1.871,0,0,1,500.452,248.056Zm4.369,6.242a1.873,1.873,0,1,1,1.873-1.873A1.872,1.872,0,0,1,504.821,254.3Zm4.37-6.242a1.872,1.872,0,1,1,1.872-1.872A1.872,1.872,0,0,1,509.191,248.056Zm4.369,6.242a1.873,1.873,0,1,1,1.873-1.873A1.871,1.871,0,0,1,513.56,254.3Z" transform="translate(0 -6.266)"/><path class="a" d="M384.785,430.718c-.2.232-1.926,2.306-1.926,3.418a2.185,2.185,0,0,0,4.369,0c0-1.112-1.73-3.186-1.926-3.418A.349.349,0,0,0,384.785,430.718Z" transform="translate(114.517 -172.221)"/><path class="a" d="M409.273,430.718c-.2.232-1.927,2.306-1.927,3.418a2.185,2.185,0,0,0,4.369,0c0-1.112-1.729-3.186-1.925-3.418A.349.349,0,0,0,409.273,430.718Z" transform="translate(102.054 -172.221)"/><path class="a" d="M372.539,419.076c-.2.234-1.927,2.306-1.927,3.419a2.185,2.185,0,0,0,4.37,0c0-1.113-1.729-3.185-1.926-3.419A.351.351,0,0,0,372.539,419.076Z" transform="translate(120.75 -166.295)"/><path class="a" d="M397.027,419.076c-.2.234-1.926,2.306-1.926,3.419a2.185,2.185,0,0,0,4.37,0c0-1.113-1.73-3.185-1.927-3.419A.351.351,0,0,0,397.027,419.076Z" transform="translate(108.286 -166.295)"/><path class="a" d="M420.769,419.076c-.2.234-1.927,2.306-1.927,3.419a2.185,2.185,0,0,0,4.37,0c0-1.113-1.729-3.185-1.926-3.419A.351.351,0,0,0,420.769,419.076Z" transform="translate(96.203 -166.295)"/></g></svg>