<svg xmlns="http://www.w3.org/2000/svg" width="50.796" height="39.643" viewBox="0 0 50.796 39.643"><defs><style>.a{fill:#fff;}</style></defs><g transform="translate(-328 -310.639)"><g transform="translate(244.337 237.922)"><path class="a" d="M118.188,92.781a8.859,8.859,0,0,0-1.416.111,11.035,11.035,0,0,0,.155-1.8A11.472,11.472,0,0,0,93.994,90.6a10.887,10.887,0,0,0,.567,21.76h23.627a9.789,9.789,0,1,0,0-19.578Z"/></g><path class="a" d="M160.469,224.339h-3.924a9.121,9.121,0,0,0-.563-2.126l3.392-1.958a1.3,1.3,0,0,0-1.3-2.259l-3.4,1.961a9.226,9.226,0,0,0-1.554-1.554l1.96-3.4a1.3,1.3,0,1,0-2.257-1.3l-1.958,3.394a9.182,9.182,0,0,0-2.125-.564v-3.924a1.3,1.3,0,0,0-2.608,0v3.924a9.158,9.158,0,0,0-2.125.566l-1.959-3.395a1.3,1.3,0,1,0-2.26,1.3l1.962,3.4c-.2.161-.392.34-.58.515a14.758,14.758,0,0,1,5.259,10.661,12.911,12.911,0,0,1,7.11,2.928,9.3,9.3,0,0,0,1.135-1.182l3.4,1.962a1.286,1.286,0,0,0,.65.175,1.3,1.3,0,0,0,.653-2.433l-3.393-1.96a9.091,9.091,0,0,0,.563-2.125h3.924a1.3,1.3,0,0,0,0-2.607Z" transform="translate(217.024 99.333)"/></g></svg>