<svg xmlns="http://www.w3.org/2000/svg" width="46.627" height="38.645" viewBox="0 0 46.627 38.645"><defs><style>.a{fill:#fff;}</style></defs><g transform="translate(-328 -311.637)"><g transform="translate(244.337 237.922)"><path class="a" d="M118.188,92.781a8.859,8.859,0,0,0-1.416.111,11.035,11.035,0,0,0,.155-1.8A11.472,11.472,0,0,0,93.994,90.6a10.887,10.887,0,0,0,.567,21.76h23.627a9.789,9.789,0,1,0,0-19.578Z"/></g><g transform="translate(-54.534 -167.449)"><path class="a" d="M443.148,493.644l-.556-.079a1.1,1.1,0,0,1-.732-.533l-.251-.506c-.123-.251-.325-.251-.45,0l-.249.506a1.109,1.109,0,0,1-.732.533l-.557.079c-.278.041-.339.234-.14.433l.4.389a1.094,1.094,0,0,1,.28.861l-.095.554c-.048.278.116.4.364.266l.5-.26a1.075,1.075,0,0,1,.9,0l.5.26c.249.132.414.012.365-.266l-.094-.554a1.1,1.1,0,0,1,.28-.861l.4-.389C443.488,493.878,443.426,493.685,443.148,493.644Z" transform="translate(-14.244 -6.699)"/><path class="a" d="M426.674,491.918a7.6,7.6,0,0,1-6.587-11.406.945.945,0,0,0-.015-.951.97.97,0,0,0-.836-.475,9.448,9.448,0,0,0-8.05,4.475,14.341,14.341,0,0,1,6.371,11.022,12.548,12.548,0,0,1,6.125,2.423c.112-.057.227-.1.337-.165a9.54,9.54,0,0,0,3.478-3.494.953.953,0,0,0-.823-1.428Z"/></g></g></svg>