<svg xmlns="http://www.w3.org/2000/svg" width="44.181" height="43.849" viewBox="0 0 44.181 43.849"><defs><style>.a{fill:#fff;}</style></defs><g transform="translate(-350.782 -79.776)"><path class="a" d="M385.2,92.911a8.853,8.853,0,0,0-1.412.11,10.9,10.9,0,0,0,.156-1.8,11.437,11.437,0,0,0-22.864-.486,10.854,10.854,0,0,0,.565,21.693H385.2a9.759,9.759,0,1,0,0-19.518Zm-21.237,18.274a1.866,1.866,0,1,1,1.866-1.866A1.866,1.866,0,0,1,363.964,111.185Zm4.354-6.22a1.866,1.866,0,1,1,1.865-1.866A1.864,1.864,0,0,1,368.318,104.966Zm4.354,6.22a1.866,1.866,0,1,1,1.866-1.866A1.865,1.865,0,0,1,372.672,111.185Zm4.354-6.22a1.866,1.866,0,1,1,1.866-1.866A1.864,1.864,0,0,1,377.026,104.966Zm4.354,6.22a1.866,1.866,0,1,1,1.866-1.866A1.865,1.865,0,0,1,381.38,111.185Z"/><path class="a" d="M396.347,167.325a1.866,1.866,0,1,0,1.866,1.866A1.866,1.866,0,0,0,396.347,167.325Z" transform="translate(-23.675 -47.432)"/><path class="a" d="M386.846,153.752a1.866,1.866,0,1,0,1.865,1.865A1.865,1.865,0,0,0,386.846,153.752Z" transform="translate(-18.528 -40.078)"/><path class="a" d="M405.849,153.752a1.866,1.866,0,1,0,1.866,1.865A1.865,1.865,0,0,0,405.849,153.752Z" transform="translate(-28.823 -40.078)"/></g></svg>