<svg xmlns="http://www.w3.org/2000/svg" width="44.181" height="46.284" viewBox="0 0 44.181 46.284"><defs><style>.a{fill:#fff;}</style></defs><g transform="translate(-354.003 -348.565)"><path class="a" d="M388.423,361.7a8.876,8.876,0,0,0-1.413.111,11.007,11.007,0,0,0,.157-1.8,11.437,11.437,0,0,0-22.864-.487,10.853,10.853,0,0,0,.565,21.693h23.555a9.759,9.759,0,1,0,0-19.517Zm-24.265,11.888a2.187,2.187,0,0,1-2.184-2.183c0-1.113,1.73-3.185,1.927-3.419a.35.35,0,0,1,.517,0c.2.233,1.927,2.306,1.927,3.419A2.188,2.188,0,0,1,364.158,373.588Zm6.014,5.716a2.186,2.186,0,0,1-2.184-2.182c0-1.113,1.729-3.187,1.925-3.419a.35.35,0,0,1,.518,0c.2.232,1.926,2.306,1.926,3.419A2.186,2.186,0,0,1,370.172,379.3Zm6.012-5.716A2.187,2.187,0,0,1,374,371.405c0-1.113,1.729-3.185,1.927-3.419a.349.349,0,0,1,.516,0c.2.233,1.927,2.306,1.927,3.419A2.187,2.187,0,0,1,376.184,373.588ZM382.2,379.3a2.187,2.187,0,0,1-2.184-2.182c0-1.113,1.73-3.187,1.927-3.419a.349.349,0,0,1,.517,0c.2.232,1.925,2.306,1.925,3.419A2.186,2.186,0,0,1,382.2,379.3Zm5.645-5.716a2.187,2.187,0,0,1-2.185-2.183c0-1.113,1.73-3.185,1.927-3.419a.35.35,0,0,1,.517,0c.2.233,1.927,2.306,1.927,3.419A2.188,2.188,0,0,1,387.841,373.588Z"/><path class="a" d="M384.785,430.718c-.2.232-1.926,2.306-1.926,3.418a2.185,2.185,0,0,0,4.369,0c0-1.112-1.73-3.186-1.926-3.418A.349.349,0,0,0,384.785,430.718Z" transform="translate(-14.687 -46.755)"/><path class="a" d="M409.273,430.718c-.2.232-1.927,2.306-1.927,3.418a2.185,2.185,0,0,0,4.369,0c0-1.112-1.729-3.186-1.925-3.418A.349.349,0,0,0,409.273,430.718Z" transform="translate(-27.15 -46.755)"/><path class="a" d="M397.027,419.076c-.2.234-1.926,2.306-1.926,3.419a2.185,2.185,0,0,0,4.37,0c0-1.113-1.73-3.185-1.927-3.419A.351.351,0,0,0,397.027,419.076Z" transform="translate(-20.917 -29.829)"/></g></svg>