<svg xmlns="http://www.w3.org/2000/svg" width="44.316" height="44.755" viewBox="0 0 44.316 44.755"><defs><style>.a{fill:#fff;}</style></defs><g transform="translate(-83.663 -79.606)"><path class="a" d="M118.188,92.781a8.859,8.859,0,0,0-1.416.111,11.035,11.035,0,0,0,.155-1.8A11.472,11.472,0,0,0,93.994,90.6a10.887,10.887,0,0,0,.567,21.76h23.627a9.789,9.789,0,1,0,0-19.578Z"/><path class="a" d="M106.732,154.429a1.557,1.557,0,0,0-2.13.57l-3.963,6.862a1.559,1.559,0,1,0,2.7,1.56l3.963-6.862A1.558,1.558,0,0,0,106.732,154.429Z" transform="translate(-8.953 -39.841)"/><path class="a" d="M127.235,154.429a1.557,1.557,0,0,0-2.13.57l-3.963,6.862a1.559,1.559,0,1,0,2.7,1.56l3.963-6.862A1.558,1.558,0,0,0,127.235,154.429Z" transform="translate(-19.901 -39.841)"/><path class="a" d="M147.739,154.429a1.557,1.557,0,0,0-2.13.57l-3.962,6.862a1.559,1.559,0,1,0,2.7,1.56l3.962-6.862A1.558,1.558,0,0,0,147.739,154.429Z" transform="translate(-30.85 -39.841)"/></g></svg>