<svg xmlns="http://www.w3.org/2000/svg" width="23.373" height="19.813" viewBox="0 0 23.373 19.813"><defs><style>.a{fill:#fff;}</style></defs><g transform="translate(-237.415 -400.235)"><path class="a" d="M265.358,420.062h-8a4.325,4.325,0,1,0,0,8.65,1.256,1.256,0,0,0,0-2.513,1.812,1.812,0,1,1,0-3.624h8a1.256,1.256,0,0,0,0-2.513Z" transform="translate(-6.826 -8.664)"/><path class="a" d="M259.532,406.373H241.741a1.812,1.812,0,1,1,0-3.624,1.257,1.257,0,0,0,0-2.513,4.325,4.325,0,1,0,0,8.65h17.791a1.256,1.256,0,0,0,0-2.513Z"/></g></svg>