<svg xmlns="http://www.w3.org/2000/svg" width="13.398" height="18.97" viewBox="0 0 13.398 18.97"><defs><style>.a{fill:#fff;}</style></defs><path class="a" d="M833.044,283.84a1.365,1.365,0,0,0-.044-.212c-.2-.562-.392-1.125-.594-1.685q-2.816-7.824-5.635-15.647c-.135-.375-.281-.775-.763-.761-.455.013-.6.391-.719.764q-2.768,8.514-5.539,17.028c-.177.543-.135.9.149,1.063.414.238.714-.031,1.012-.266q2.351-1.853,4.7-3.706c.387-.3.491-.3.9-.012q2.592,1.866,5.184,3.731a2.8,2.8,0,0,0,.494.307A.6.6,0,0,0,833.044,283.84Z" transform="translate(-819.645 -265.535)"/></svg>